#!OML:ASF H:\Dans Jumps\Project 1\Capture day 1\Session 1\subject.ASF
:FULLY-SPECIFIED
:DEGREES
82
root 0.19625 17.4359 -14.611 9.00717 -0.721076 -1.76309
lowerback 3.2187 -0.474764 0.478647
upperback 5.74668 -0.689756 1.81943
thorax 4.13809 -0.369124 1.60677
lowerneck -12.7333 0.558642 -1.92596
upperneck 31.2861 1.29767 0.00699397
head 12.4436 0.343941 0.521265
rclavicle 1.2921e-015 5.36719e-015
rhumerus -21.4558 -16.2593 -79.7644
rradius 24.7485
rwrist 29.3828
rhand -19.7139 -26.6886
rfingers 7.12502
rthumb 6.61601 -56.5653
lclavicle 1.2921e-015 5.36719e-015
lhumerus -18.611 -0.934061 87.6333
lradius 19.1664
lwrist 6.32392
lhand -26.2535 -3.58889
lfingers 7.12502
lthumb 0.300907 26.3906
rfemur -22.5678 -3.60693 20.4751
rtibia 28.3385
rfoot -13.7653 -1.90208
rtoes 9.71937
lfemur -21.9544 7.96707 -18.4553
ltibia 27.4667
lfoot -12.2793 4.08451
ltoes 0.162036
83
root 0.197881 17.4175 -14.6334 9.11177 -0.711478 -1.75158
lowerback 3.43493 -0.467906 0.460542
upperback 5.79317 -0.678009 1.81947
thorax 4.06483 -0.364075 1.61868
lowerneck -12.7899 0.55713 -1.91263
upperneck 31.0293 1.29302 -0.0007843
head 12.3507 0.345275 0.514303
rclavicle -6.26172e-015 2.08724e-014
rhumerus -21.5922 -16.2204 -79.6521
rradius 24.7708
rwrist 29.355
rhand -19.7319 -26.7223
rfingers 7.12502
rthumb 6.59863 -56.5995
lclavicle -6.26172e-015 2.08724e-014
lhumerus -18.7012 -0.99871 87.5777
lradius 19.2549
lwrist 6.58003
lhand -26.2414 -3.37504
lfingers 7.12502
lthumb 0.312595 26.6045
rfemur -23.0926 -3.66662 20.4824
rtibia 28.9296
rfoot -13.9154 -1.89351
rtoes 9.51112
lfemur -22.5025 8.093 -18.5219
ltibia 28.0939
lfoot -12.4712 4.01879
ltoes 0.0638245
84
root 0.199228 17.398 -14.657 9.21924 -0.70703 -1.74049
lowerback 3.66469 -0.457981 0.437026
upperback 5.84238 -0.662201 1.82127
thorax 3.98687 -0.357263 1.63549
lowerneck -12.8439 0.554027 -1.90478
upperneck 30.7587 1.28673 -0.00673912
head 12.2523 0.34562 0.508699
rclavicle -3.08116e-015 -2.18663e-015
rhumerus -21.7372 -16.1819 -79.5328
rradius 24.7911
rwrist 29.335
rhand -19.758 -26.7305
rfingers 7.12502
rthumb 6.57348 -56.6085
lclavicle -3.08116e-015 -2.18663e-015
lhumerus -18.7989 -1.07139 87.5242
lradius 19.3379
lwrist 6.817
lhand -26.2639 -3.21329
lfingers 7.12502
lthumb 0.290879 26.7663
rfemur -23.6309 -3.71287 20.4888
rtibia 29.5351
rfoot -14.0748 -1.88872
rtoes 9.32996
lfemur -23.0677 8.22908 -18.5908
ltibia 28.7368
lfoot -12.6653 3.9518
ltoes -0.0531424
85
root 0.200292 17.3776 -14.6814 9.32797 -0.706378 -1.73246
lowerback 3.90438 -0.444543 0.412708
upperback 5.89756 -0.641825 1.82389
thorax 3.90961 -0.348238 1.6536
lowerneck -12.8949 0.547375 -1.90283
upperneck 30.4723 1.27511 -0.00772813
head 12.1474 0.34372 0.505177
rclavicle -1.98785e-015 1.07344e-014
rhumerus -21.8879 -16.1395 -79.4123
rradius 24.8125
rwrist 29.3054
rhand -19.794 -26.7187
rfingers 7.12502
rthumb 6.53873 -56.5977
lclavicle -1.98785e-015 1.07344e-014
lhumerus -18.9 -1.15819 87.4714
lradius 19.4126
lwrist 7.03764
lhand -26.3139 -3.12604
lfingers 7.12502
lthumb 0.242618 26.8536
rfemur -24.1763 -3.74698 20.4979
rtibia 30.1467
rfoot -14.2417 -1.89098
rtoes 9.15798
lfemur -23.6451 8.37575 -18.6585
ltibia 29.3915
lfoot -12.8629 3.88216
ltoes -0.188765
86
root 0.201097 17.3566 -14.7066 9.43762 -0.707034 -1.73297
lowerback 4.15338 -0.429114 0.390628
upperback 5.95864 -0.618998 1.83137
thorax 3.83341 -0.338033 1.67544
lowerneck -12.9477 0.53943 -1.89742
upperneck 30.1742 1.26373 -0.0185615
head 12.0391 0.341184 0.497368
rclavicle -7.95139e-016 -5.96354e-016
rhumerus -22.0416 -16.0932 -79.2883
rradius 24.8312
rwrist 29.2634
rhand -19.824 -26.6927
rfingers 7.12502
rthumb 6.50971 -56.5727
lclavicle -7.95139e-016 -5.96354e-016
lhumerus -19.0105 -1.24381 87.4197
lradius 19.4722
lwrist 7.22432
lhand -26.4171 -3.20295
lfingers 7.12502
lthumb 0.14292 26.7767
rfemur -24.7248 -3.77152 20.5163
rtibia 30.7591
rfoot -14.4154 -1.90111
rtoes 8.98833
lfemur -24.2323 8.52735 -18.718
ltibia 30.0559
lfoot -13.0634 3.81188
ltoes -0.330851
87
root 0.201659 17.3349 -14.7326 9.549 -0.708072 -1.74499
lowerback 4.41113 -0.411289 0.374662
upperback 6.02458 -0.593096 1.84416
thorax 3.75743 -0.326186 1.69925
lowerneck -12.9975 0.52902 -1.8936
upperneck 29.8639 1.25005 -0.0326791
head 11.926 0.337154 0.488264
rclavicle 9.54166e-015 -1.74931e-014
rhumerus -22.2036 -16.0336 -79.1626
rradius 24.8567
rwrist 29.1896
rhand -19.8605 -26.6665
rfingers 7.12502
rthumb 6.47447 -56.5475
lclavicle 9.54166e-015 -1.74931e-014
lhumerus -19.1235 -1.32521 87.3685
lradius 19.5164
lwrist 7.40213
lhand -26.5227 -3.34212
lfingers 7.12502
lthumb 0.040929 26.6376
rfemur -25.2763 -3.78837 20.5477
rtibia 31.3696
rfoot -14.5936 -1.91796
rtoes 8.82353
lfemur -24.8298 8.68229 -18.766
ltibia 30.7296
lfoot -13.2673 3.74294
ltoes -0.473678
88
root 0.202103 17.3125 -14.7593 9.66802 -0.705707 -1.76904
lowerback 4.67268 -0.392914 0.367773
upperback 6.09295 -0.566491 1.86246
thorax 3.68199 -0.313756 1.72356
lowerneck -13.0503 0.517552 -1.88623
upperneck 29.5477 1.23643 -0.0549752
head 11.8121 0.332559 0.475565
rclavicle 3.57812e-015 1.70955e-014
rhumerus -22.3731 -15.9674 -79.0361
rradius 24.8898
rwrist 29.0927
rhand -19.889 -26.6551
rfingers 7.12502
rthumb 6.44696 -56.537
lclavicle 3.57812e-015 1.70955e-014
lhumerus -19.2379 -1.39666 87.3173
lradius 19.549
lwrist 7.57157
lhand -26.6335 -3.52124
lfingers 7.12502
lthumb -0.0661319 26.4585
rfemur -25.8381 -3.80424 20.5941
rtibia 31.9804
rfoot -14.7772 -1.93769
rtoes 8.67649
lfemur -25.4457 8.83506 -18.8027
ltibia 31.4156
lfoot -13.4758 3.67816
ltoes -0.617572
89
root 0.202613 17.2894 -14.7867 9.79733 -0.702051 -1.80618
lowerback 4.93569 -0.37408 0.371987
upperback 6.16047 -0.539172 1.88692
thorax 3.60495 -0.300659 1.74788
lowerneck -13.1009 0.505536 -1.8763
upperneck 29.2295 1.22431 -0.0874678
head 11.698 0.327651 0.458923
rclavicle 3.18055e-015 3.97569e-015
rhumerus -22.5545 -15.9027 -78.904
rradius 24.9284
rwrist 28.9852
rhand -19.9068 -26.6644
rfingers 7.12502
rthumb 6.42983 -56.5468
lclavicle 3.18055e-015 3.97569e-015
lhumerus -19.3581 -1.46169 87.2689
lradius 19.5785
lwrist 7.74674
lhand -26.7344 -3.65363
lfingers 7.12502
lthumb -0.163534 26.326
rfemur -26.4164 -3.82137 20.6566
rtibia 32.5958
rfoot -14.9631 -1.9581
rtoes 8.53295
lfemur -26.0824 8.98194 -18.8275
ltibia 32.1156
lfoot -13.6885 3.62408
ltoes -0.757003
90
root 0.203232 17.2654 -14.815 9.93791 -0.700995 -1.85496
lowerback 5.20223 -0.353845 0.385668
upperback 6.22637 -0.509754 1.91661
thorax 3.52431 -0.286246 1.77212
lowerneck -13.1526 0.494617 -1.86393
upperneck 28.9108 1.21612 -0.130217
head 11.5846 0.323479 0.438724
rclavicle 1.39149e-015 1.98785e-016
rhumerus -22.7469 -15.8389 -78.7669
rradius 24.9759
rwrist 28.8644
rhand -19.9138 -26.6942
rfingers 7.12502
rthumb 6.42302 -56.5768
lclavicle 1.39149e-015 1.98785e-016
lhumerus -19.4838 -1.5298 87.2258
lradius 19.6098
lwrist 7.95074
lhand -26.8497 -3.77514
lfingers 7.12502
lthumb -0.274906 26.2044
rfemur -27.0165 -3.83727 20.7337
rtibia 33.2215
rfoot -15.15 -1.97705
rtoes 8.38838
lfemur -26.7424 9.12111 -18.8418
ltibia 32.8321
lfoot -13.9045 3.58498
ltoes -0.89416
91
root 0.204104 17.2404 -14.8439 10.0934 -0.703486 -1.90905
lowerback 5.46373 -0.332813 0.405354
upperback 6.29508 -0.47918 1.94759
thorax 3.44955 -0.271076 1.79412
lowerneck -13.2039 0.483624 -1.85145
upperneck 28.5815 1.20927 -0.178966
head 11.4679 0.319283 0.416574
rclavicle 2.38542e-015 -2.98177e-015
rhumerus -22.9371 -15.7878 -78.6304
rradius 25.0258
rwrist 28.7474
rhand -19.9174 -26.7428
rfingers 7.12502
rthumb 6.41953 -56.6256
lclavicle 2.38542e-015 -2.98177e-015
lhumerus -19.6044 -1.61072 87.1847
lradius 19.6474
lwrist 8.18511
lhand -26.9541 -3.85003
lfingers 7.12502
lthumb -0.3758 26.1294
rfemur -27.6454 -3.85762 20.8191
rtibia 33.8619
rfoot -15.3379 -1.98901
rtoes 8.24778
lfemur -27.428 9.24508 -18.8524
ltibia 33.5639
lfoot -14.1207 3.56696
ltoes -1.01893
92
root 0.205296 17.2143 -14.8733 10.2624 -0.71051 -1.96551
lowerback 5.7232 -0.310774 0.429906
upperback 6.36392 -0.447027 1.9783
thorax 3.37614 -0.254929 1.8129
lowerneck -13.253 0.473588 -1.83974
upperneck 28.2436 1.20483 -0.231921
head 11.3482 0.31568 0.393456
rclavicle -6.75868e-015 -1.70955e-014
rhumerus -23.1317 -15.758 -78.4886
rradius 25.0725
rwrist 28.6564
rhand -19.9261 -26.7815
rfingers 7.12502
rthumb 6.41111 -56.6644
lclavicle -6.75868e-015 -1.70955e-014
lhumerus -19.7284 -1.70705 87.1457
lradius 19.6907
lwrist 8.44988
lhand -26.9768 -3.7482
lfingers 7.12502
lthumb -0.397671 26.2312
rfemur -28.3032 -3.88257 20.9087
rtibia 34.521
rfoot -15.5275 -1.99041
rtoes 8.12364
lfemur -28.1365 9.35291 -18.8622
ltibia 34.3102
lfoot -14.336 3.57153
ltoes -1.13858
93
root 0.206675 17.187 -14.9033 10.44 -0.722839 -2.01602
lowerback 5.98459 -0.286825 0.450572
upperback 6.43443 -0.412243 2.00576
thorax 3.30351 -0.237561 1.83026
lowerneck -13.2954 0.461733 -1.83739
upperneck 27.8894 1.1976 -0.277957
head 11.2216 0.310898 0.374173
rclavicle -6.06293e-015 -1.59028e-015
rhumerus -23.3344 -15.7443 -78.3442
rradius 25.1227
rwrist 28.5799
rhand -19.9548 -26.8073
rfingers 7.12502
rthumb 6.38343 -56.6911
lclavicle -6.06293e-015 -1.59028e-015
lhumerus -19.8612 -1.8262 87.1088
lradius 19.7483
lwrist 8.74828
lhand -27.0163 -3.6524
lfingers 7.12502
lthumb -0.435808 26.3269
rfemur -28.9858 -3.9106 20.9933
rtibia 35.1996
rfoot -15.7171 -1.98586
rtoes 7.99965
lfemur -28.8604 9.44558 -18.8794
ltibia 35.0655
lfoot -14.5481 3.59539
ltoes -1.24917
94
root 0.208209 17.1585 -14.9337 10.6227 -0.740616 -2.05679
lowerback 6.25266 -0.261703 0.462628
upperback 6.50342 -0.375859 2.02945
thorax 3.22574 -0.219637 1.84834
lowerneck -13.3495 0.451433 -1.82875
upperneck 27.5403 1.19311 -0.330939
head 11.1003 0.307094 0.351873
rclavicle 1.59028e-015 -6.75868e-015
rhumerus -23.5598 -15.7243 -78.1971
rradius 25.1875
rwrist 28.4946
rhand -19.9867 -26.8155
rfingers 7.12502
rthumb 6.35263 -56.7002
lclavicle 1.59028e-015 -6.75868e-015
lhumerus -20.0205 -1.94831 87.0725
lradius 19.8196
lwrist 9.04864
lhand -27.0716 -3.60441
lfingers 7.12502
lthumb -0.489215 26.3748
rfemur -29.6886 -3.94054 21.0681
rtibia 35.8978
rfoot -15.9073 -1.97587
rtoes 7.87855
lfemur -29.5932 9.52974 -18.9084
ltibia 35.8264
lfoot -14.7599 3.62933
ltoes -1.33869
95
root 0.209783 17.1289 -14.9641 10.8033 -0.766054 -2.08539
lowerback 6.53502 -0.234722 0.461346
upperback 6.56866 -0.337034 2.04884
thorax 3.13625 -0.200885 1.86922
lowerneck -13.3917 0.442352 -1.82457
upperneck 27.1841 1.18987 -0.380571
head 10.9746 0.303942 0.331799
rclavicle 1.98785e-016 1.2921e-014
rhumerus -23.816 -15.689 -78.0487
rradius 25.2685
rwrist 28.3758
rhand -20.0276 -26.8254
rfingers 7.12502
rthumb 6.31315 -56.7113
lclavicle 1.98785e-016 1.2921e-014
lhumerus -20.2153 -2.07516 87.0369
lradius 19.9073
lwrist 9.3564
lhand -27.1443 -3.58377
lfingers 7.12502
lthumb -0.559477 26.3952
rfemur -30.4012 -3.96999 21.1297
rtibia 36.6134
rfoot -16.0994 -1.96454
rtoes 7.74942
lfemur -30.3225 9.60676 -18.9501
ltibia 36.5872
lfoot -14.9718 3.67299
ltoes -1.40959
